<svg width="32" height="32" viewBox="0 0 32 32" fill="none" xmlns="http://www.w3.org/2000/svg">
<path d="M15.4828 22.25L15.1279 22.6022C15.2706 22.746 15.4859 22.7895 15.6733 22.7123C15.8606 22.6351 15.9828 22.4526 15.9828 22.25H15.4828ZM9.28125 16L8.92632 15.6478C8.73289 15.8428 8.73289 16.1572 8.92632 16.3522L9.28125 16ZM15.4828 9.75H15.9828C15.9828 9.54741 15.8606 9.36485 15.6733 9.28769C15.4859 9.21053 15.2706 9.25402 15.1279 9.39782L15.4828 9.75ZM10.143 15.5C9.86683 15.5 9.64297 15.7239 9.64297 16C9.64297 16.2761 9.86683 16.5 10.143 16.5V15.5ZM22.7188 16.5C22.9949 16.5 23.2188 16.2761 23.2188 16C23.2188 15.7239 22.9949 15.5 22.7188 15.5V16.5ZM15.8377 21.8978L9.63618 15.6478L8.92632 16.3522L15.1279 22.6022L15.8377 21.8978ZM9.63618 16.3522L15.8377 10.1022L15.1279 9.39782L8.92632 15.6478L9.63618 16.3522ZM14.9828 9.75V22.25H15.9828V9.75H14.9828ZM10.143 16.5H22.7188V15.5H10.143V16.5Z" fill="#1282A2"/>
<path d="M31 16C31 7.71875 24.2812 1 16 1C7.71875 1 1 7.71875 1 16C1 24.2812 7.71875 31 16 31C24.2812 31 31 24.2812 31 16Z" stroke="#1282A2" stroke-miterlimit="10"/>
</svg>
